<?xml version="1.0" standalone="no"?>
<!DOCTYPE svg PUBLIC "-//W3C//DTD SVG 20010904//EN"
 "http://www.w3.org/TR/2001/REC-SVG-20010904/DTD/svg10.dtd">
<svg version="1.0" xmlns="http://www.w3.org/2000/svg"
 width="225.000000pt" height="225.000000pt" viewBox="0 0 225.000000 225.000000"
 preserveAspectRatio="xMidYMid meet">
<metadata>
Created by potrace 1.10, written by Peter Selinger 2001-2011
</metadata>
<g transform="translate(0.000000,225.000000) scale(0.100000,-0.100000)"
fill="#000000" stroke="none">
<path d="M1078 2243 c67 -2 177 -2 245 0 67 1 12 3 -123 3 -135 0 -190 -2
-122 -3z"/>
<path d="M2203 2243 c16 -4 17 -35 17 -479 0 -301 -4 -474 -10 -474 -6 0 -6
-9 -1 -23 15 -39 17 -152 3 -150 -14 3 -16 -23 -2 -32 14 -9 14 -1055 -1
-1055 -5 0 -7 5 -4 10 3 6 1 10 -4 10 -6 0 -11 -4 -11 -10 0 -7 -372 -10
-1095 -10 -723 0 -1095 -3 -1095 -10 0 -7 380 -10 1120 -10 l1120 0 0 1120 0
1120 -27 -1 c-17 -1 -21 -3 -10 -6z"/>
<path d="M980 2140 c-14 -4 -18 -9 -10 -9 8 -1 -4 -12 -28 -24 -24 -13 -39
-27 -35 -32 4 -5 -1 -3 -11 5 -11 8 -17 10 -13 4 4 -7 0 -18 -9 -25 -16 -13
-23 -28 -39 -78 -5 -16 -4 -21 4 -17 6 4 11 2 11 -3 0 -6 -4 -11 -10 -11 -15
0 -12 -48 6 -86 9 -18 46 -62 83 -96 59 -56 66 -60 69 -40 3 23 -18 58 -75
127 -74 88 -67 165 20 215 54 31 95 37 128 20 13 -7 19 -7 19 0 0 5 -5 10 -11
10 -6 0 -9 6 -6 14 4 10 0 12 -15 8 -15 -4 -19 -2 -13 7 6 10 3 11 -13 2 -30
-16 -40 -13 -18 4 22 17 8 19 -34 5z"/>
<path d="M990 2060 c-44 -44 -14 -110 92 -197 44 -36 81 -75 84 -89 l6 -24 21
26 c29 37 92 63 136 57 38 -6 67 -23 40 -23 -30 0 -52 -36 -45 -74 10 -54 68
-82 116 -56 35 19 41 44 20 83 -23 43 -13 48 36 18 76 -46 114 -137 114 -269
l0 -87 19 30 c10 17 30 41 45 54 21 19 26 21 26 8 0 -9 -4 -19 -10 -22 -5 -3
-10 -36 -10 -72 0 -54 7 -82 37 -152 37 -86 45 -135 29 -180 -5 -15 -5 -21 2
-17 6 3 17 27 26 53 15 42 14 53 -1 129 -16 75 -16 88 -3 126 10 28 22 44 35
46 16 3 18 1 8 -9 -20 -20 -15 -58 17 -138 55 -135 28 -242 -83 -322 -30 -22
-35 -29 -21 -29 31 0 44 -20 44 -68 0 -47 -11 -74 -43 -109 -29 -32 -39 -28
-31 12 8 43 -8 65 -45 65 -76 0 -113 -136 -65 -232 21 -41 18 -50 -13 -34 -45
24 -83 65 -90 97 -3 16 -9 29 -14 29 -19 0 -8 -82 21 -153 17 -42 30 -87 30
-101 0 -14 -12 -69 -27 -122 -21 -75 -25 -99 -16 -114 10 -15 9 -19 -8 -23
-10 -3 -17 -1 -14 4 3 5 1 18 -5 30 -7 12 -13 60 -13 108 l-2 86 -50 64 c-41
52 -51 60 -53 43 -2 -11 4 -34 12 -51 9 -16 16 -32 16 -36 0 -12 -22 -3 -52
23 -48 42 -67 46 -74 17 -3 -13 -3 -33 1 -44 7 -23 -2 -61 -14 -61 -4 0 -13
16 -20 35 -7 21 -28 46 -49 60 -63 43 -76 29 -47 -50 32 -89 4 -177 -69 -220
-58 -34 -76 -32 -42 3 34 36 43 89 23 128 -8 16 -35 59 -60 95 -36 54 -45 77
-49 125 -3 32 -14 77 -24 98 l-19 39 -6 -70 c-4 -57 -11 -78 -33 -108 -27 -35
-71 -64 -81 -53 -3 3 2 22 11 44 10 21 20 58 24 81 6 38 4 43 -12 43 -11 0
-18 7 -18 18 0 47 -53 120 -156 216 -60 56 -113 115 -121 134 -10 25 -12 57
-7 131 5 67 3 104 -5 119 -9 18 -9 22 3 22 21 0 48 -66 56 -141 8 -69 24 -101
74 -148 33 -31 33 -22 1 25 -23 34 -25 46 -24 128 3 110 -15 152 -90 215 -64
53 -93 101 -89 142 4 44 22 47 33 7 8 -26 18 -36 52 -48 23 -8 46 -10 50 -6 4
5 2 11 -6 14 -7 2 -28 17 -45 32 -27 24 -31 35 -31 77 0 38 7 57 33 93 97 134
102 143 102 176 0 38 14 44 30 15 19 -36 11 -92 -22 -158 -31 -60 -32 -65 -18
-91 13 -23 68 -60 92 -62 4 0 -4 22 -18 49 -19 35 -24 57 -19 78 11 49 61 93
82 72 5 -5 9 -1 9 10 0 16 -4 18 -19 9 -23 -12 -37 -1 -17 13 11 8 9 9 -9 4
-15 -5 -21 -3 -17 3 4 6 2 31 -4 55 -10 38 -16 44 -49 53 -35 10 -38 8 -49
-15 -7 -14 -12 -38 -12 -53 0 -15 -5 -28 -11 -28 -5 0 -7 -4 -4 -10 8 -14 -8
-13 -22 1 -9 9 -10 7 -6 -9 3 -12 9 -19 14 -16 5 3 9 0 9 -6 0 -7 -6 -10 -14
-7 -8 3 -17 1 -20 -6 -4 -7 -4 -2 -2 11 2 12 0 20 -5 16 -5 -3 -9 -12 -9 -20
0 -8 -7 -14 -16 -14 -10 0 -14 -6 -10 -15 3 -8 0 -15 -5 -15 -7 0 -9 -9 -6
-21 4 -15 2 -19 -9 -15 -16 6 -20 -19 -4 -29 5 -3 7 -12 3 -21 -5 -13 -7 -12
-17 2 -10 13 -12 10 -12 -20 0 -28 3 -33 13 -24 10 8 12 7 7 -6 -8 -20 -43
-21 -50 -2 -8 20 -34 29 -34 11 0 -8 7 -15 16 -15 8 0 12 -5 9 -10 -4 -6 -11
-7 -17 -4 -7 4 -8 2 -4 -4 4 -7 2 -20 -3 -29 -7 -13 -10 -14 -11 -4 0 8 -3 12
-6 9 -3 -4 0 -17 7 -30 7 -12 12 -29 10 -37 -1 -7 2 -10 8 -7 5 4 9 15 8 26
-1 10 -5 16 -9 14 -15 -10 -8 13 12 36 11 13 23 20 27 16 4 -3 1 -12 -5 -18
-22 -22 -14 -87 13 -112 14 -13 25 -28 25 -35 0 -6 8 -11 18 -11 14 0 14 -3
-5 -18 -15 -11 -20 -21 -14 -31 7 -11 10 -9 16 8 6 19 8 19 21 6 9 -8 19 -13
23 -11 4 3 8 -5 8 -16 2 -20 1 -20 -13 -2 -9 11 -13 13 -9 7 11 -22 -4 -34
-26 -22 -19 10 -20 9 -9 -11 6 -11 15 -18 21 -15 5 4 9 1 9 -4 0 -14 -22 -14
-38 -1 -8 7 -9 7 -3 -1 5 -6 8 -17 7 -23 -2 -6 -1 -8 1 -3 12 21 18 0 17 -61
-2 -87 -3 -90 -14 -72 -8 13 -10 12 -10 -2 0 -10 7 -18 15 -18 8 0 15 -5 15
-11 0 -5 -4 -8 -9 -5 -4 3 -8 -8 -7 -23 1 -16 3 -29 6 -29 21 1 27 -5 23 -26
-4 -18 0 -26 16 -31 16 -5 20 -13 17 -31 -3 -14 -1 -22 5 -19 5 4 7 12 3 18
-3 7 4 0 16 -16 12 -15 27 -24 32 -21 7 4 8 2 4 -4 -4 -7 -2 -12 4 -12 6 0 14
-8 17 -17 9 -23 35 -53 46 -53 5 0 4 8 -4 18 -12 16 -12 16 5 1 9 -9 18 -25
18 -36 1 -11 9 -26 17 -33 13 -13 14 -12 8 5 -6 20 -6 20 6 1 7 -11 22 -30 34
-43 12 -12 18 -25 13 -28 -6 -4 -5 -14 2 -25 7 -10 15 -17 19 -14 4 2 5 -6 1
-18 -4 -16 -2 -19 9 -13 12 8 12 6 0 -8 -12 -16 -12 -17 5 -11 14 4 15 3 6 -4
-7 -5 -14 -23 -14 -40 -1 -18 -5 -32 -11 -32 -5 0 -6 -7 -3 -16 3 -8 2 -12 -4
-9 -6 3 -10 -1 -10 -9 0 -9 5 -16 10 -16 6 0 9 -5 8 -11 -2 -6 5 -13 15 -14 9
-2 15 1 11 6 -3 5 0 9 5 9 6 0 11 -5 11 -11 0 -8 4 -8 14 0 11 9 15 9 19 -1 4
-11 6 -10 6 0 1 8 6 10 14 6 6 -4 9 -4 5 1 -10 10 11 37 23 29 5 -3 9 -1 9 5
0 5 -4 11 -8 13 -4 1 0 10 9 19 15 15 17 14 29 -5 12 -19 11 -20 -3 -8 -8 7
-18 9 -21 4 -3 -5 8 -19 24 -31 17 -12 29 -25 29 -29 -3 -18 3 -31 30 -61 16
-18 27 -39 25 -46 -3 -7 -1 -16 5 -20 6 -3 11 -14 11 -23 0 -15 -2 -15 -10 -2
-5 8 -10 10 -10 4 0 -6 3 -14 7 -18 14 -14 12 -38 -3 -32 -8 3 -12 2 -9 -4 3
-5 0 -18 -6 -28 -9 -15 -8 -24 6 -46 11 -16 24 -25 32 -22 8 4 21 6 29 6 9 0
13 4 10 9 -6 9 43 36 61 32 6 -1 14 3 18 9 4 6 -1 7 -12 4 -17 -5 -17 -5 0 9
21 18 37 68 37 121 0 31 3 37 16 32 14 -6 15 -4 3 10 -16 19 -20 56 -5 51 6
-2 11 -10 11 -18 0 -18 20 -39 37 -39 10 0 9 -3 -2 -10 -11 -7 -7 -8 14 -6 18
2 33 12 41 26 9 17 14 19 18 9 3 -8 3 0 0 17 -3 18 0 35 6 38 6 4 11 2 11 -4
0 -6 4 -9 9 -5 5 3 13 0 16 -5 4 -6 19 -10 33 -8 21 2 27 -2 32 -22 l7 -25 6
25 c4 17 5 13 3 -12 -1 -21 1 -38 4 -38 3 0 6 -25 6 -55 0 -87 51 -138 99
-100 11 9 14 14 8 10 -16 -8 -16 0 -2 27 8 16 8 19 -1 13 -8 -5 -11 -3 -7 6 3
8 11 33 18 57 6 23 15 42 20 42 5 0 9 19 9 43 0 24 5 48 12 55 9 9 9 12 -1 12
-8 0 -10 7 -6 20 3 11 2 20 -4 20 -5 0 -8 9 -6 20 2 11 0 20 -5 20 -4 0 -10 7
-14 15 -4 13 -2 14 14 5 11 -6 26 -8 32 -4 7 4 8 3 4 -4 -15 -25 14 -10 38 19
26 31 26 31 6 49 -11 9 -16 20 -13 24 4 4 1 11 -7 16 -12 8 -11 10 5 10 19 1
19 1 3 14 -10 7 -18 19 -18 27 0 11 2 11 11 -1 9 -12 10 -12 5 4 -9 27 12 96
29 96 8 0 15 -5 15 -11 0 -5 4 -7 10 -4 6 3 7 -1 4 -9 -4 -10 6 -27 26 -46 33
-31 50 -38 50 -20 0 6 -5 10 -12 10 -7 0 5 15 25 34 22 20 37 43 37 57 0 12 3
20 6 16 4 -3 13 0 20 8 19 18 18 31 -1 15 -9 -7 -19 -10 -22 -6 -4 4 -1 11 7
17 13 7 13 10 1 18 -11 7 -11 10 0 17 7 4 14 3 17 -4 2 -7 9 -12 15 -12 7 1 2
9 -10 19 -32 27 -46 68 -27 75 9 3 21 3 26 -1 6 -3 8 -1 5 4 -4 6 0 16 8 23 8
7 15 16 15 21 0 4 11 25 25 45 22 33 24 43 19 98 -4 34 -7 70 -8 82 0 11 -6
27 -12 35 -20 27 -46 97 -40 108 4 6 1 11 -6 11 -8 0 -9 3 -3 8 6 4 12 16 13
27 2 11 1 17 -4 13 -4 -4 -12 0 -19 8 -16 23 -59 1 -52 -26 7 -26 -20 -14 -29
12 -3 11 -8 18 -10 15 -2 -2 1 -18 7 -36 8 -23 8 -36 1 -43 -7 -7 -12 -1 -17
23 -9 52 -1 119 15 130 13 9 13 10 0 7 -8 -3 -26 1 -39 8 -26 14 -47 1 -34
-20 4 -5 1 -6 -6 -2 -8 5 -10 19 -6 36 4 16 2 38 -4 49 -8 13 -8 20 0 23 14 5
-33 98 -50 98 -11 0 -11 3 -1 16 8 8 9 14 4 12 -5 -1 -25 13 -45 33 -19 20
-42 35 -51 33 -10 -1 -15 3 -12 11 3 7 0 16 -6 20 -6 3 -10 3 -9 -2 5 -30 -2
-35 -23 -17 -13 10 -18 12 -11 5 9 -11 7 -18 -7 -33 -15 -16 -16 -24 -8 -38
25 -40 -23 -69 -54 -32 -21 24 -31 43 -21 41 4 -1 17 2 27 6 19 8 19 9 0 16
-17 7 -17 8 -1 8 37 2 9 45 -40 61 -37 13 -130 -11 -125 -31 2 -8 0 -11 -4 -7
-4 4 -13 3 -20 -3 -10 -8 -11 -5 -7 12 4 15 2 20 -5 15 -12 -7 -83 38 -96 62
-5 10 0 8 13 -5 27 -28 35 -29 19 -3 -14 22 -62 42 -74 32 -4 -4 -4 -2 0 5 3
6 -3 27 -14 45 -25 41 -25 48 -1 48 11 0 23 5 27 12 5 7 3 8 -6 3 -9 -5 -11
-4 -6 4 6 9 11 9 21 1 10 -8 15 -8 20 1 19 30 -55 39 -85 9z"/>
<path d="M810 1985 c-7 -9 -10 -18 -6 -22 3 -3 -3 -12 -13 -19 -12 -9 -23 -35
-30 -77 -13 -75 -13 -80 -3 -74 4 3 13 -1 20 -9 7 -8 10 -14 7 -14 -3 0 2 -14
10 -30 9 -17 13 -36 9 -42 -4 -6 -3 -8 3 -5 18 11 23 -20 7 -40 -11 -13 -17
-15 -21 -5 -4 10 -8 10 -19 1 -11 -9 -18 -9 -29 1 -12 10 -15 10 -15 -1 0 -12
-2 -12 -9 0 -5 7 -14 10 -20 7 -6 -4 -11 -5 -11 -1 0 3 10 9 21 13 21 8 21 9
3 26 -17 18 -18 18 -35 -3 -22 -27 -15 -47 22 -66 44 -23 93 -19 129 12 38 31
36 59 -6 123 -31 46 -36 120 -11 169 11 21 12 31 3 34 -8 3 -7 9 3 20 7 10 11
17 8 17 -2 0 -10 -7 -17 -15z"/>
<path d="M65 1860 c-4 -6 -17 -15 -29 -20 l-21 -9 22 0 c12 -1 25 -5 28 -11 3
-5 16 -10 28 -9 20 1 19 2 -5 13 -22 9 -25 15 -16 24 6 6 9 14 6 17 -3 4 -9 1
-13 -5z"/>
<path d="M4 1680 c0 -85 2 -120 3 -77 2 42 2 112 0 155 -1 42 -3 7 -3 -78z"/>
<path d="M144 1772 c-16 -10 -37 -53 -30 -60 3 -3 6 0 6 6 0 6 8 13 18 16 10
3 18 15 18 26 0 11 0 20 -1 20 0 0 -5 -4 -11 -8z"/>
<path d="M184 1695 c3 -9 0 -15 -9 -15 -8 0 -15 -4 -15 -10 0 -13 6 -13 30 0
19 10 17 40 -2 40 -6 0 -8 -7 -4 -15z"/>
<path d="M1033 1680 c-133 -15 -282 -122 -319 -230 -21 -62 -24 -216 -5 -285
15 -55 73 -136 90 -125 9 5 10 9 2 14 -20 13 -1 26 23 16 13 -5 27 -6 30 -3 3
4 14 -2 23 -13 18 -19 58 -30 47 -13 -3 5 0 9 5 9 6 0 11 -5 11 -11 0 -8 5 -8
15 1 9 7 27 10 44 7 19 -4 31 -2 34 6 3 7 4 2 4 -10 -1 -13 -5 -23 -9 -23 -4
0 -5 -6 -2 -14 4 -11 0 -13 -15 -9 -12 3 -24 9 -27 14 -3 5 -10 9 -17 9 -6 0
-2 -7 9 -16 15 -12 12 -12 -12 2 -30 16 -32 16 -78 -11 -25 -15 -49 -33 -54
-40 -9 -16 -30 -2 -50 34 -12 21 -12 23 2 18 10 -4 16 -1 16 7 0 8 -11 13 -27
12 -23 -1 -28 -6 -28 -26 0 -14 -3 -30 -7 -36 -4 -7 2 -25 14 -40 12 -16 23
-30 24 -32 1 -2 12 2 24 8 16 9 25 9 33 1 14 -14 47 -14 47 -1 0 6 -9 10 -20
10 -11 0 -20 3 -20 8 0 15 84 62 111 62 26 0 27 -2 27 -52 1 -69 21 -347 27
-376 3 -12 12 -22 21 -22 13 0 15 23 13 172 -1 105 2 173 8 175 11 4 23 -141
23 -279 0 -79 2 -88 19 -88 24 0 31 50 31 231 0 105 3 139 13 139 9 0 11 -41
8 -185 -3 -160 -1 -185 12 -185 23 0 26 18 33 205 6 159 9 175 25 175 24 0 35
-20 18 -31 -11 -6 -15 -47 -17 -177 l-3 -169 24 4 c31 6 37 36 37 186 0 80 4
116 16 140 9 17 18 51 19 76 2 49 14 59 71 60 42 1 61 -21 46 -54 -11 -23 -9
-25 12 -25 15 0 36 14 55 35 32 37 39 63 21 81 -7 7 -2 43 14 110 13 54 27
131 30 170 7 68 6 73 -34 151 -65 130 -170 211 -301 233 -70 11 -93 11 -186 0z
m169 -34 c-3 -5 7 -6 22 -2 19 5 32 1 48 -13 16 -16 25 -18 40 -10 13 7 18 7
16 -3 -2 -7 7 -17 20 -23 12 -5 22 -13 22 -18 0 -4 6 -5 13 -1 8 6 8 3 -1 -9
-15 -17 -9 -37 11 -37 7 0 6 4 -3 10 -8 5 -12 12 -8 15 9 9 47 -17 54 -38 3
-9 9 -15 14 -12 8 5 22 -19 24 -40 1 -5 9 -22 19 -36 9 -14 19 -46 21 -70 l3
-44 -43 -1 c-23 0 -54 -8 -68 -17 -14 -9 -32 -14 -40 -11 -23 9 -56 -14 -49
-33 5 -12 2 -15 -10 -10 -11 4 -17 1 -17 -9 0 -8 -4 -13 -9 -10 -5 3 -14 -1
-21 -9 -7 -8 -21 -15 -31 -15 -10 0 -23 -9 -29 -20 -6 -11 -16 -20 -23 -20 -8
0 -8 3 1 9 10 6 9 10 -7 14 -12 3 -19 2 -16 -3 3 -4 -2 -13 -10 -20 -8 -7 -12
-17 -9 -24 3 -6 -1 -3 -9 7 -8 9 -20 17 -28 17 -11 0 -11 2 1 11 11 8 8 9 -13
4 -19 -4 -26 -2 -22 5 3 5 -1 10 -10 10 -8 0 -38 12 -65 26 -35 18 -48 30 -41
38 6 8 1 11 -16 13 -19 1 -22 -1 -12 -8 16 -10 8 -12 -15 -3 -9 3 -14 10 -11
14 5 7 -84 46 -97 42 -4 -1 -5 5 -1 14 4 12 -2 11 -31 -5 -44 -25 -42 -25 -42
-2 0 10 5 17 11 15 6 -3 11 5 11 16 0 12 -5 19 -12 16 -7 -3 -2 21 11 59 13
35 20 67 17 71 -4 4 -1 4 6 0 6 -4 12 -2 12 4 0 6 4 9 9 6 5 -3 8 2 7 12 -1
12 6 17 24 17 18 0 24 5 22 18 -2 9 2 17 7 17 6 0 15 -8 20 -17 6 -10 11 -13
11 -7 0 5 -5 15 -11 21 -7 7 8 21 53 45 35 19 64 31 66 27 2 -5 10 -9 18 -9 9
0 13 4 9 9 -6 11 38 16 131 16 34 0 59 -4 56 -9z m-322 -406 c47 -28 115 -65
153 -82 37 -17 67 -35 67 -39 0 -5 -26 -16 -57 -25 -49 -14 -69 -15 -132 -5
-123 19 -159 54 -160 159 -1 37 2 42 22 42 12 0 60 -23 107 -50z m624 25 c10
-41 -24 -127 -60 -147 -47 -28 -175 -43 -229 -28 -64 18 -75 35 -31 50 19 6
77 36 127 67 149 90 183 100 193 58z m-26 -217 c-1 -30 -6 -38 -21 -38 -10 0
-15 5 -12 10 4 6 -5 5 -20 -2 -16 -7 -29 -8 -33 -2 -4 5 -27 10 -52 10 l-45 2
35 -14 35 -13 -45 4 c-25 2 -40 2 -34 -1 15 -6 6 -41 -12 -48 -10 -4 -12 -15
-7 -37 l6 -31 -43 22 c-39 20 -41 22 -23 35 13 10 18 25 17 60 -1 41 1 46 20
44 12 0 23 0 26 1 16 6 70 4 70 -2 0 -5 7 -8 16 -8 8 0 13 4 10 8 -3 5 9 9 27
10 17 0 33 6 35 11 2 6 7 9 12 6 5 -3 12 4 15 16 11 32 25 3 23 -43z m-369
-53 c-18 -57 -25 -61 -43 -26 -18 33 -19 29 32 109 l17 27 3 -35 c2 -19 -2
-53 -9 -75z m71 43 c18 -35 19 -45 9 -69 -6 -16 -18 -29 -27 -29 -8 0 -13 3
-9 6 3 4 0 22 -8 41 -8 20 -15 53 -15 75 0 34 2 39 14 29 8 -7 24 -31 36 -53z
m-160 -67 c0 -11 5 -23 11 -27 8 -4 9 1 5 17 -6 23 -6 22 8 -2 18 -31 44 -43
61 -29 18 15 48 1 40 -18 -4 -12 0 -11 17 4 13 11 18 12 10 3 -6 -9 -9 -18 -6
-22 3 -3 -8 -3 -25 -1 -24 4 -31 1 -31 -10 0 -9 -6 -16 -14 -16 -16 0 -29 27
-19 42 3 7 1 8 -5 4 -6 -3 -15 2 -21 11 -6 10 -11 13 -11 8 0 -6 5 -16 10 -21
7 -7 2 -14 -17 -23 -23 -10 -26 -10 -15 0 6 7 12 20 12 28 0 11 -4 10 -15 -5
-8 -10 -15 -14 -15 -8 0 5 5 15 11 21 9 9 8 18 -5 37 -14 23 -14 26 -1 26 8 0
15 -9 15 -19z"/>
<path d="M280 1639 c0 -26 -3 -30 -10 -19 -5 8 -10 10 -10 4 0 -6 9 -19 19
-28 19 -17 19 -16 14 26 -7 54 -13 62 -13 17z"/>
<path d="M220 1596 c0 -36 17 -41 22 -6 3 20 0 30 -9 30 -7 0 -13 -11 -13 -24z"/>
<path d="M4 1120 c0 -91 2 -128 3 -82 2 45 2 119 0 165 -1 45 -3 8 -3 -83z"/>
<path d="M50 194 c-7 -19 -9 -38 -6 -41 3 -4 6 1 6 11 0 9 5 14 10 11 6 -4 10
7 10 24 0 41 -6 39 -20 -5z"/>
</g>
</svg>